<?xml version="1.0" standalone="no"?>
<!DOCTYPE svg PUBLIC "-//W3C//DTD SVG 20010904//EN"
 "http://www.w3.org/TR/2001/REC-SVG-20010904/DTD/svg10.dtd">
<svg version="1.0" xmlns="http://www.w3.org/2000/svg"
 width="350.000000pt" height="248.000000pt" viewBox="0 0 350.000000 248.000000"
 preserveAspectRatio="xMidYMid meet">
<metadata>
Created by potrace 1.16, written by Peter Selinger 2001-2019
</metadata>
<g transform="translate(0.000000,248.000000) scale(0.100000,-0.100000)"
fill="#000000" stroke="none">
<path d="M13 2445 c-10 -11 -13 -268 -13 -1213 0 -1149 1 -1200 18 -1215 17
-16 152 -17 1736 -17 1475 0 1719 2 1732 14 12 13 14 188 14 1218 0 923 -3
1207 -12 1216 -9 9 -408 12 -1738 12 -1477 -1 -1727 -3 -1737 -15z m2776 -512
c26 -23 36 -72 15 -80 -8 -3 -14 -16 -14 -29 0 -13 -10 -33 -22 -44 -13 -12
-30 -27 -39 -35 -9 -8 -23 -15 -31 -15 -23 0 -32 -32 -13 -46 9 -7 14 -17 13
-24 -2 -6 5 -17 14 -23 19 -13 73 7 63 23 -3 6 -1 10 4 10 6 0 11 -11 11 -25
0 -14 -5 -25 -12 -25 -6 0 -19 -7 -28 -15 -15 -14 -18 -14 -30 0 -7 8 -21 15
-32 15 -11 0 -26 6 -34 14 -14 14 -63 9 -64 -6 0 -5 0 -12 0 -17 0 -5 18 -11
40 -15 30 -5 40 -11 38 -23 -2 -9 10 -22 29 -32 29 -15 52 -51 32 -51 -5 0
-15 -15 -23 -33 -15 -36 -90 -117 -108 -117 -6 0 -3 9 7 20 12 14 14 20 5 20
-7 0 -18 -7 -25 -16 -9 -12 -20 -15 -44 -9 l-32 7 32 24 c55 40 61 59 25 75
-20 9 -29 7 -55 -12 -20 -15 -31 -31 -31 -47 0 -30 -50 -79 -113 -110 -51 -25
-59 -33 -26 -25 30 8 22 -24 -13 -50 -53 -39 -184 -31 -143 9 7 8 22 18 33 22
10 4 52 38 92 75 l73 68 -44 -6 c-24 -4 -68 -16 -97 -27 -39 -15 -56 -18 -64
-10 -8 8 -8 15 2 27 10 13 9 15 -6 14 -31 -1 -117 -34 -122 -47 -2 -6 8 -14
23 -18 14 -3 32 -19 40 -35 15 -27 14 -29 -12 -42 -42 -21 -91 -28 -96 -14 -2
7 -17 12 -33 12 -28 0 -29 1 -29 50 0 64 -18 69 -70 18 -39 -38 -33 -61 8 -27
l22 19 -20 -24 c-11 -13 -18 -33 -16 -45 3 -20 2 -20 -16 -4 -11 10 -25 18
-31 18 -18 0 -52 61 -52 91 0 32 -9 42 -27 28 -17 -15 -17 -49 1 -74 7 -11 16
-33 19 -50 3 -16 8 -43 11 -59 6 -25 4 -27 -11 -21 -10 4 -23 8 -30 8 -6 0
-21 21 -34 46 -26 53 -38 64 -56 49 -7 -5 -24 -7 -38 -4 -31 8 -33 -9 -3 -25
18 -10 19 -13 6 -20 -10 -5 -14 -17 -11 -29 3 -10 -2 -26 -11 -35 -15 -15 -16
-15 -16 1 0 10 -3 15 -6 11 -4 -3 1 -30 11 -59 16 -50 16 -53 -1 -65 -16 -11
-22 -9 -51 22 -38 40 -53 43 -71 15 -17 -27 -29 -25 -46 8 l-15 27 -1 -28 c0
-15 4 -35 9 -45 5 -9 14 -29 20 -44 7 -20 18 -28 35 -28 23 0 54 -25 44 -36
-3 -2 -17 0 -30 7 -21 9 -31 8 -53 -7 -26 -17 -28 -17 -37 1 -21 37 -80 94
-92 89 -7 -3 -19 -17 -26 -32 l-12 -27 -15 23 c-20 29 -33 28 -33 -3 0 -14 5
-25 10 -25 6 0 10 -12 10 -27 0 -16 7 -41 15 -57 22 -41 18 -80 -10 -122 -14
-20 -25 -42 -25 -48 0 -7 -23 -37 -50 -67 -28 -30 -47 -45 -41 -34 5 11 21 31
35 44 16 15 29 41 33 65 4 27 17 51 36 69 17 16 22 24 12 20 -13 -4 -16 -3
-11 5 4 7 3 12 -3 12 -6 0 -17 15 -26 33 -28 58 -58 88 -83 81 -12 -4 -22 -14
-22 -23 0 -32 -13 -31 -34 2 l-21 32 -3 -39 c-2 -21 1 -42 7 -45 5 -4 13 -26
17 -49 4 -23 12 -42 18 -42 6 -1 0 -10 -14 -21 l-24 -21 -28 58 c-31 63 -44
76 -70 70 -10 -2 -21 0 -24 5 -13 21 -21 6 -14 -26 4 -19 6 -35 4 -35 -8 0
-33 58 -39 92 -6 33 -11 37 -47 43 -37 7 -39 9 -36 38 4 45 32 47 48 5 l13
-33 12 50 c10 42 10 52 -3 62 -19 16 -9 74 18 98 19 17 21 17 40 0 11 -10 20
-28 20 -39 1 -20 2 -19 15 4 8 14 14 37 15 53 0 15 5 27 10 27 6 0 10 -6 10
-12 0 -18 34 -98 41 -98 8 0 19 38 19 68 0 12 -4 22 -10 22 -17 0 -11 30 11
61 24 34 42 37 62 9 13 -19 15 -18 30 21 9 22 20 38 25 35 5 -3 15 -27 22 -53
7 -27 16 -52 20 -56 12 -13 23 72 12 86 -11 14 9 67 33 87 13 11 21 11 36 2
16 -10 21 -10 25 3 4 8 14 15 24 15 19 0 40 -44 40 -84 1 -21 1 -21 15 -2 8
11 15 36 16 55 0 59 21 104 51 115 23 8 30 5 55 -23 15 -18 34 -47 40 -65 11
-28 12 -23 7 40 -6 67 -5 72 17 88 30 21 48 20 65 -1 12 -17 13 -16 14 4 0 36
11 53 35 53 24 0 50 -24 58 -55 4 -18 5 -17 6 3 0 13 5 20 11 17 5 -3 22 15
38 41 l29 46 8 -44 8 -43 11 43 c8 31 19 48 39 58 15 8 27 19 27 24 0 13 54
40 79 40 24 0 38 -19 21 -30 -18 -11 5 -50 30 -50 14 0 22 11 29 38 12 42 44
66 104 77 31 6 42 4 61 -14 21 -20 28 -21 65 -11 47 12 53 27 15 36 -45 11 -5
35 80 47 72 10 77 10 96 -11 20 -21 22 -21 52 -6 29 15 30 15 24 -1 -3 -10 0
-28 9 -41 17 -26 41 -33 31 -9 -3 8 -1 15 5 15 7 0 9 12 7 30 -5 32 1 37 21
18 10 -11 10 -8 3 11 -6 17 -5 33 4 49 17 33 32 42 73 42 19 0 31 3 28 7 -4 3
-25 6 -47 5 -44 -2 -48 3 -23 30 21 23 84 24 112 1z m-2215 -1039 c-6 -34 -5
-36 15 -29 15 4 35 -2 66 -22 35 -22 49 -39 65 -81 25 -65 25 -81 0 -28 -18
38 -18 38 -30 16 -10 -18 -9 -24 1 -31 8 -5 17 -9 21 -9 4 0 11 -18 14 -40 4
-26 13 -41 25 -45 19 -6 26 -31 10 -37 -5 -1 -29 -43 -54 -93 -51 -101 -77
-131 -124 -137 -37 -5 -37 -5 -20 23 10 17 10 23 0 26 -7 3 -13 9 -13 14 0 4
7 6 15 3 10 -4 15 0 15 13 0 10 5 24 12 31 9 9 7 12 -9 12 -24 0 -36 42 -26
92 5 26 4 30 -10 25 -10 -4 -17 -2 -17 2 0 5 14 14 31 20 24 8 29 15 24 30 -3
11 -2 22 4 25 8 5 5 106 -4 115 -3 2 -11 -2 -19 -9 -38 -31 -73 75 -41 124 10
14 26 26 37 26 16 0 18 -5 12 -36z"/>
</g>
</svg>
